<svg width="32" height="32" viewBox="0 0 32 32" fill="none" xmlns="http://www.w3.org/2000/svg">
<path d="M32 16C32 19.1645 31.0616 22.2579 29.3035 24.8891C27.5454 27.5203 25.0466 29.5711 22.1229 30.7821C19.1993 31.9931 15.9823 32.3099 12.8786 31.6926C9.77486 31.0752 6.92394 29.5513 4.6863 27.3137C2.44866 25.0761 0.924807 22.2251 0.307443 19.1214C-0.30992 16.0177 0.0069304 12.8007 1.21793 9.87706C2.42893 6.95345 4.47969 4.45459 7.11088 2.69649C9.74207 0.938385 12.8355 1.59341e-07 16 1.59341e-07C18.1012 -0.000296395 20.1819 0.413353 22.1233 1.21732C24.0646 2.02129 25.8286 3.19983 27.3144 4.68563C28.8002 6.17142 29.9787 7.93537 30.7827 9.87671C31.5867 11.8181 32.0003 13.8988 32 16ZM16.5193 4.79977H15.4807C15.0226 4.80156 14.5838 4.98433 14.2599 5.30826C13.9359 5.63219 13.7532 6.07103 13.7514 6.52914V7.56766C13.7532 8.02577 13.9359 8.4646 14.2599 8.78853C14.5838 9.11246 15.0226 9.29524 15.4807 9.29702H16.5193C16.9774 9.29524 17.4162 9.11246 17.7401 8.78853C18.0641 8.4646 18.2468 8.02577 18.2486 7.56766V6.52914C18.2468 6.07103 18.0641 5.63219 17.7401 5.30826C17.4162 4.98433 16.9774 4.80156 16.5193 4.79977ZM21.8383 10.1346H20.7998C20.3428 10.1382 19.9057 10.3217 19.5833 10.6455C19.2608 10.9692 19.079 11.407 19.0772 11.864V12.9025C19.079 13.3606 19.2617 13.7994 19.5857 14.1234C19.9096 14.4473 20.3484 14.6301 20.8066 14.6319H21.8451C22.3032 14.6301 22.742 14.4473 23.0659 14.1234C23.3899 13.7994 23.5727 13.3606 23.5744 12.9025V11.864C23.5726 11.4047 23.3889 10.9648 23.0635 10.6407C22.7381 10.3166 22.2976 10.1346 21.8383 10.1346ZM16.5193 22.703H15.4807C15.0226 22.7048 14.5838 22.8875 14.2599 23.2115C13.9359 23.5354 13.7532 23.9742 13.7514 24.4323V25.4686C13.7526 25.9269 13.9352 26.3661 14.2592 26.6901C14.5833 27.0142 15.0225 27.1968 15.4807 27.198H16.5193C16.9776 27.1968 17.4167 27.0142 17.7408 26.6901C18.0649 26.3661 18.2474 25.9269 18.2486 25.4686V24.4323C18.2468 23.9742 18.0641 23.5354 17.7401 23.2115C17.4162 22.8875 16.9774 22.7048 16.5193 22.703ZM18.2486 12.8867V11.8482C18.2468 11.3901 18.0641 10.9512 17.7401 10.6273C17.4162 10.3034 16.9774 10.1206 16.5193 10.1188H10.1617C9.7036 10.1206 9.26477 10.3034 8.94084 10.6273C8.6169 10.9512 8.43413 11.3901 8.43235 11.8482V12.8867C8.43413 13.3448 8.6169 13.7836 8.94084 14.1076C9.26477 14.4315 9.7036 14.6143 10.1617 14.6161H13.7514V19.6303V20.1496C13.7526 20.6079 13.9352 21.047 14.2592 21.3711C14.5833 21.6952 15.0225 21.8777 15.4807 21.8789H16.5193C16.9776 21.8777 17.4167 21.6952 17.7408 21.3711C18.0649 21.047 18.2474 20.6079 18.2486 20.1496V19.1133V12.8867Z" fill="#004641"/>
</svg>
