<svg width="14" height="13" viewBox="0 0 14 13" fill="none" xmlns="http://www.w3.org/2000/svg">
<path d="M0.599976 7.29999C0.599976 6.85817 0.958148 6.49999 1.39998 6.49999H2.99998C3.4418 6.49999 3.79998 6.85817 3.79998 7.29999V11.3C3.79998 11.7418 3.4418 12.1 2.99998 12.1H1.39998C0.958148 12.1 0.599976 11.7418 0.599976 11.3V7.29999Z" fill="#2F2F23"/>
<path d="M5.39998 4.09999C5.39998 3.65817 5.75815 3.29999 6.19998 3.29999H7.79998C8.2418 3.29999 8.59998 3.65817 8.59998 4.09999V11.3C8.59998 11.7418 8.2418 12.1 7.79998 12.1H6.19998C5.75815 12.1 5.39998 11.7418 5.39998 11.3V4.09999Z" fill="#2F2F23"/>
<path d="M10.2 1.69999C10.2 1.25817 10.5581 0.899994 11 0.899994H12.6C13.0418 0.899994 13.4 1.25817 13.4 1.69999V11.3C13.4 11.7418 13.0418 12.1 12.6 12.1H11C10.5581 12.1 10.2 11.7418 10.2 11.3V1.69999Z" fill="#2F2F23"/>
</svg>
